<svg width="301" height="301" viewBox="0 0 301 301" fill="none" xmlns="http://www.w3.org/2000/svg">
<g clip-path="url(#clip0_71_2)">
<rect width="300" height="300" transform="translate(0.27002 0.28717)" fill="#1E1E1E"/>
<rect x="0.27002" y="0.28717" width="300" height="300" fill="#494649"/>
<path d="M53.4455 321.253C53.4455 321.253 34.0806 321.253 34.0806 301.888C34.0806 282.523 53.4455 224.428 150.27 224.428C247.094 224.428 266.459 282.523 266.459 301.888C266.459 321.253 247.094 321.253 247.094 321.253H53.4455ZM150.27 205.063C165.678 205.063 180.454 198.943 191.349 188.048C202.244 177.153 208.365 162.376 208.365 146.969C208.365 131.561 202.244 116.784 191.349 105.89C180.454 94.9948 165.678 88.8741 150.27 88.8741C134.862 88.8741 120.086 94.9948 109.191 105.89C98.2959 116.784 92.1752 131.561 92.1752 146.969C92.1752 162.376 98.2959 177.153 109.191 188.048C120.086 198.943 134.862 205.063 150.27 205.063Z" fill="white"/>
</g>
<defs>
<clipPath id="clip0_71_2">
<rect width="300" height="300" fill="white" transform="translate(0.27002 0.28717)"/>
</clipPath>
</defs>
</svg>
