<svg width="484" height="159" viewBox="0 0 484 159" fill="none" xmlns="http://www.w3.org/2000/svg">
<path d="M473.391 113.672C467.503 113.672 462.991 112.072 459.855 108.872C456.719 105.608 455.151 100.904 455.151 94.76V72.584H446.607V59.432H482.031V72.584H471.375V94.952C471.375 96.488 471.855 97.704 472.815 98.6C473.839 99.432 475.055 99.848 476.463 99.848C477.103 99.848 477.679 99.784 478.191 99.656C478.767 99.464 479.311 99.208 479.823 98.888L483.855 110.792C482.319 111.624 480.687 112.328 478.959 112.904C477.295 113.416 475.439 113.672 473.391 113.672ZM450.831 63.752V59.432C452.239 59.432 453.391 58.984 454.287 58.088C455.183 57.192 455.631 56.04 455.631 54.632V46.376H471.375V52.136C471.375 53.032 471.151 54.024 470.703 55.112C470.255 56.136 469.551 57.064 468.591 57.896C467.695 58.664 466.607 59.176 465.327 59.432L450.831 63.752Z" fill="white"/>
<path d="M407.606 113V59.432H423.83V113H407.606ZM421.334 89.96L423.83 72.392C424.982 68.232 426.998 64.968 429.878 62.6C432.758 60.168 436.438 58.952 440.918 58.952V75.848C440.214 75.72 439.542 75.624 438.902 75.56C438.262 75.496 437.622 75.464 436.982 75.464C434.614 75.464 432.438 76.04 430.454 77.192C428.47 78.28 426.87 79.912 425.654 82.088C424.438 84.2 423.83 86.824 423.83 89.96H421.334Z" fill="white"/>
<path d="M398.946 85.352C398.946 86.888 398.85 88.488 398.658 90.152H361.506C361.762 93.48 362.818 96.04 364.674 97.832C366.594 99.56 368.93 100.424 371.682 100.424C375.778 100.424 378.626 98.696 380.226 95.24H397.698C396.802 98.76 395.17 101.928 392.802 104.744C390.498 107.56 387.586 109.768 384.066 111.368C380.546 112.968 376.61 113.768 372.258 113.768C367.01 113.768 362.338 112.648 358.242 110.408C354.146 108.168 350.946 104.968 348.642 100.808C346.338 96.648 345.186 91.784 345.186 86.216C345.186 80.648 346.306 75.784 348.546 71.624C350.85 67.464 354.05 64.264 358.146 62.024C362.242 59.784 366.946 58.664 372.258 58.664C377.442 58.664 382.05 59.752 386.082 61.928C390.114 64.104 393.25 67.208 395.49 71.24C397.794 75.272 398.946 79.976 398.946 85.352ZM382.146 81.032C382.146 78.216 381.186 75.976 379.266 74.312C377.346 72.648 374.946 71.816 372.066 71.816C369.314 71.816 366.978 72.616 365.058 74.216C363.202 75.816 362.05 78.088 361.602 81.032H382.146ZM383.298 45.704L360.162 55.4V44.072L383.298 32.936V45.704Z" fill="white"/>
<path d="M316.608 113.672C312.576 113.672 309.024 112.584 305.952 110.408C302.88 108.168 300.704 105.096 299.424 101.192V138.44H283.2V59.432H299.424V71.336C300.704 67.368 302.88 64.296 305.952 62.12C309.024 59.88 312.576 58.76 316.608 58.76C321.28 58.76 325.344 59.976 328.8 62.408C332.256 64.84 334.912 68.136 336.768 72.296C338.688 76.456 339.648 81.096 339.648 86.216C339.648 91.4 338.688 96.072 336.768 100.232C334.912 104.328 332.256 107.592 328.8 110.024C325.344 112.456 321.28 113.672 316.608 113.672ZM311.328 99.464C313.44 99.464 315.392 98.952 317.184 97.928C319.04 96.904 320.48 95.4 321.504 93.416C322.592 91.432 323.136 89.032 323.136 86.216C323.136 83.464 322.592 81.096 321.504 79.112C320.48 77.128 319.04 75.592 317.184 74.504C315.392 73.416 313.44 72.872 311.328 72.872C309.216 72.872 307.232 73.416 305.376 74.504C303.584 75.592 302.144 77.128 301.056 79.112C299.968 81.096 299.424 83.464 299.424 86.216C299.424 89.032 299.968 91.432 301.056 93.416C302.144 95.4 303.584 96.904 305.376 97.928C307.232 98.952 309.216 99.464 311.328 99.464Z" fill="white"/>
<path d="M211.21 45.608H230.026L274.954 113H256.042L211.21 45.608ZM245.002 87.464L230.026 113H211.69L235.786 74.888L245.002 87.464ZM240.778 71.144L255.658 45.608H273.994L249.994 83.72L240.778 71.144Z" fill="white"/>
<path d="M46.88 158.87H38.44C32.2595 158.87 26.3321 156.416 21.9609 152.046C17.5897 147.677 15.1327 141.751 15.13 135.57V93.5701C15.13 92.244 14.6032 90.9722 13.6655 90.0345C12.7278 89.0968 11.4561 88.5701 10.13 88.5701H9.13C6.70766 88.5674 4.38543 87.6033 2.67351 85.8895C0.961587 84.1757 -1.44982e-06 81.8524 0 79.4301C0 77.0086 0.961911 74.6864 2.67412 72.9742C4.38633 71.262 6.70858 70.3 9.13 70.3H10.13C16.3122 70.3 22.2412 72.7559 26.6127 77.1274C30.9841 81.4989 33.44 87.4279 33.44 93.61V135.61C33.44 136.936 33.9668 138.208 34.9045 139.146C35.8421 140.083 37.1139 140.61 38.44 140.61H46.88C49.3041 140.61 51.6289 141.573 53.343 143.287C55.057 145.001 56.02 147.326 56.02 149.75C56.0147 152.171 55.0494 154.49 53.3359 156.2C51.6224 157.91 49.3006 158.87 46.88 158.87Z" fill="url(#paint0_linear_23_355)"/>
<path d="M46.88 0H38.44C32.2595 -5.68704e-07 26.3321 2.4545 21.9609 6.82381C17.5897 11.1931 15.1327 17.1195 15.13 23.3V65.3C15.13 66.6261 14.6032 67.8979 13.6655 68.8355C12.7278 69.7732 11.4561 70.3 10.13 70.3H9.13C6.70766 70.3026 4.38543 71.2668 2.67351 72.9806C0.961587 74.6944 -1.44982e-06 77.0176 0 79.44C0 81.8614 0.961911 84.1837 2.67412 85.8959C4.38633 87.6081 6.70858 88.57 9.13 88.57H10.13C16.3122 88.57 22.2412 86.1141 26.6127 81.7427C30.9841 77.3712 33.44 71.4422 33.44 65.26V23.26C33.44 21.9339 33.9668 20.6621 34.9045 19.7245C35.8421 18.7868 37.1139 18.26 38.44 18.26H46.88C49.3041 18.26 51.6289 17.297 53.343 15.583C55.057 13.8689 56.02 11.5441 56.02 9.12C56.0147 6.69939 55.0494 4.37973 53.3359 2.66997C51.6224 0.960208 49.3006 -5.79512e-06 46.88 0Z" fill="url(#paint1_linear_23_355)"/>
<path d="M151.94 158.87H160.38C163.441 158.871 166.472 158.27 169.3 157.099C172.128 155.929 174.697 154.213 176.862 152.049C179.027 149.885 180.744 147.316 181.915 144.489C183.087 141.661 183.69 138.631 183.69 135.57V93.5701C183.69 92.244 184.217 90.9722 185.154 90.0345C186.092 89.0968 187.364 88.5701 188.69 88.5701H189.64C192.064 88.5701 194.389 87.6071 196.103 85.893C197.817 84.1789 198.78 81.8541 198.78 79.4301C198.777 77.0077 197.813 74.6855 196.099 72.9736C194.386 71.2616 192.062 70.3 189.64 70.3H188.78C182.598 70.3 176.669 72.7559 172.297 77.1274C167.926 81.4989 165.47 87.4279 165.47 93.61V135.61C165.47 136.936 164.943 138.208 164.006 139.146C163.068 140.083 161.796 140.61 160.47 140.61H152.03C149.608 140.613 147.285 141.577 145.574 143.291C143.862 145.004 142.9 147.328 142.9 149.75C142.903 152.154 143.853 154.46 145.546 156.168C147.238 157.875 149.536 158.846 151.94 158.87Z" fill="url(#paint2_linear_23_355)"/>
<path d="M151.94 4.92931e-05H160.38C163.441 -0.00126429 166.472 0.60044 169.3 1.77079C172.128 2.94113 174.697 4.65719 176.862 6.82093C179.027 8.98466 180.744 11.5537 181.915 14.3812C183.087 17.2088 183.69 20.2394 183.69 23.3V65.3C183.69 66.6261 184.217 67.8979 185.154 68.8356C186.092 69.7733 187.364 70.3 188.69 70.3H189.64C192.062 70.3 194.386 71.2616 196.099 72.9735C197.813 74.6855 198.777 77.0077 198.78 79.43C198.777 81.8524 197.813 84.1746 196.099 85.8865C194.386 87.5985 192.062 88.5601 189.64 88.5601H188.78C182.6 88.5601 176.672 86.1056 172.301 81.7362C167.93 77.3669 165.473 71.4405 165.47 65.26V23.2601C165.47 21.934 164.943 20.6622 164.006 19.7245C163.068 18.7868 161.796 18.2601 160.47 18.2601H152.03C150.821 18.2746 149.622 18.0493 148.501 17.5971C147.38 17.1449 146.36 16.4748 145.499 15.6257C144.639 14.7766 143.956 13.7653 143.489 12.6503C143.022 11.5353 142.781 10.3388 142.78 9.13005C142.78 7.92855 143.017 6.73887 143.478 5.62921C143.939 4.51954 144.614 3.51172 145.465 2.66353C146.316 1.81534 147.326 1.14345 148.437 0.686397C149.548 0.22934 150.739 -0.00389867 151.94 4.92931e-05Z" fill="url(#paint3_linear_23_355)"/>
<path d="M126.65 86.5901H106.92C101.635 86.5901 97.35 90.8747 97.35 96.1601V115.89C97.35 121.175 101.635 125.46 106.92 125.46H126.65C131.935 125.46 136.22 121.175 136.22 115.89V96.1601C136.22 90.8747 131.935 86.5901 126.65 86.5901Z" fill="url(#paint4_linear_23_355)"/>
<path d="M82 84.4801H73.18C70.8217 84.4801 68.91 86.3918 68.91 88.7501V97.5701C68.91 99.9284 70.8217 101.84 73.18 101.84H82C84.3583 101.84 86.27 99.9284 86.27 97.5701V88.7501C86.27 86.3918 84.3583 84.4801 82 84.4801Z" fill="url(#paint5_linear_23_355)"/>
<path d="M125.15 48.3601H114.04C111.069 48.3601 108.66 50.7688 108.66 53.7401V64.8501C108.66 67.8214 111.069 70.2301 114.04 70.2301H125.15C128.121 70.2301 130.53 67.8214 130.53 64.8501V53.7401C130.53 50.7688 128.121 48.3601 125.15 48.3601Z" fill="url(#paint6_linear_23_355)"/>
<path d="M89.41 33.42H71.36C66.5275 33.42 62.61 37.3376 62.61 42.17V60.22C62.61 65.0525 66.5275 68.97 71.36 68.97H89.41C94.2425 68.97 98.16 65.0525 98.16 60.22V42.17C98.16 37.3376 94.2425 33.42 89.41 33.42Z" fill="url(#paint7_linear_23_355)"/>
<defs>
<linearGradient id="paint0_linear_23_355" x1="54.33" y1="167.05" x2="7.54" y2="85.3901" gradientUnits="userSpaceOnUse">
<stop stop-color="#01E1FD"/>
<stop offset="1" stop-color="#008DFF"/>
</linearGradient>
<linearGradient id="paint1_linear_23_355" x1="49.97" y1="-0.0399999" x2="-8.7" y2="101.14" gradientUnits="userSpaceOnUse">
<stop stop-color="#008DFF"/>
<stop offset="1" stop-color="#01E1FD"/>
</linearGradient>
<linearGradient id="paint2_linear_23_355" x1="144.5" y1="167.05" x2="191.28" y2="85.3901" gradientUnits="userSpaceOnUse">
<stop stop-color="#01E1FD"/>
<stop offset="1" stop-color="#008DFF"/>
</linearGradient>
<linearGradient id="paint3_linear_23_355" x1="148.86" y1="-0.0399502" x2="207.52" y2="101.14" gradientUnits="userSpaceOnUse">
<stop stop-color="#008DFF"/>
<stop offset="1" stop-color="#01E1FD"/>
</linearGradient>
<linearGradient id="paint4_linear_23_355" x1="97.35" y1="106.03" x2="136.22" y2="106.03" gradientUnits="userSpaceOnUse">
<stop stop-color="#9900FF"/>
<stop offset="1" stop-color="#4D00FF"/>
</linearGradient>
<linearGradient id="paint5_linear_23_355" x1="68.91" y1="93.1501" x2="86.27" y2="93.1501" gradientUnits="userSpaceOnUse">
<stop stop-color="#01E1FD"/>
<stop offset="1" stop-color="#008DFF"/>
</linearGradient>
<linearGradient id="paint6_linear_23_355" x1="108.66" y1="59.3001" x2="130.53" y2="59.3001" gradientUnits="userSpaceOnUse">
<stop stop-color="#01E1FD"/>
<stop offset="1" stop-color="#008DFF" stop-opacity="0.952941"/>
</linearGradient>
<linearGradient id="paint7_linear_23_355" x1="62.61" y1="51.19" x2="98.16" y2="51.19" gradientUnits="userSpaceOnUse">
<stop stop-color="#9900FF"/>
<stop offset="1" stop-color="#4D00FF"/>
</linearGradient>
</defs>
</svg>
