<svg width="500" height="500" viewBox="0 0 500 500" fill="none" xmlns="http://www.w3.org/2000/svg">
<path d="M117.919 449.613H96.6899C81.1439 449.613 66.2342 443.439 55.2392 432.449C44.2441 421.458 38.0638 406.551 38.0572 391.005V285.361C38.0572 282.025 36.7321 278.826 34.3735 276.468C32.0149 274.109 28.816 272.784 25.4805 272.784H22.9651C16.8721 272.778 11.0309 270.352 6.72479 266.042C2.41872 261.731 -3.64679e-06 255.887 0 249.794C0 243.703 2.41954 237.862 6.72633 233.555C11.0331 229.248 16.8744 226.829 22.9651 226.829H25.4805C41.0308 226.829 55.9442 233.006 66.94 244.002C77.9358 254.998 84.1131 269.911 84.1131 285.462V391.106C84.1131 394.442 85.4382 397.641 87.7968 399.999C90.1554 402.358 93.3543 403.683 96.6899 403.683H117.919C124.017 403.683 129.864 406.105 134.176 410.416C138.487 414.728 140.91 420.576 140.91 426.673C140.896 432.762 138.468 438.596 134.158 442.897C129.848 447.198 124.008 449.613 117.919 449.613Z" fill="url(#paint0_linear_62_13)"/>
<path d="M117.919 50.0001H96.6899C81.1439 50.0001 66.2342 56.174 55.2392 67.1643C44.2441 78.1546 38.0638 93.0616 38.0572 108.608V214.252C38.0572 217.588 36.7321 220.787 34.3735 223.145C32.0149 225.504 28.816 226.829 25.4805 226.829H22.9651C16.8721 226.835 11.0309 229.261 6.72479 233.571C2.41872 237.882 -3.64679e-06 243.726 0 249.819C0 255.91 2.41954 261.751 6.72633 266.058C11.0331 270.365 16.8744 272.784 22.9651 272.784H25.4805C41.0308 272.784 55.9442 266.607 66.94 255.611C77.9358 244.615 84.1131 229.702 84.1131 214.151V108.507C84.1131 105.171 85.4382 101.972 87.7968 99.6139C90.1554 97.2553 93.3543 95.9303 96.6899 95.9303H117.919C124.017 95.9303 129.864 93.5081 134.176 89.1966C138.487 84.8851 140.91 79.0374 140.91 72.94C140.896 66.8513 138.468 61.0166 134.158 56.716C129.848 52.4153 124.008 50 117.919 50.0001Z" fill="url(#paint1_linear_62_13)"/>
<path d="M382.181 449.613H403.411C411.109 449.616 418.733 448.103 425.846 445.159C432.96 442.215 439.424 437.899 444.869 432.456C450.314 427.014 454.633 420.552 457.58 413.439C460.527 406.327 462.043 398.704 462.043 391.005V285.361C462.043 282.025 463.368 278.826 465.727 276.468C468.086 274.109 471.284 272.784 474.62 272.784H477.01C483.107 272.784 488.955 270.362 493.266 266.051C497.578 261.739 500 255.891 500 249.794C499.993 243.701 497.568 237.86 493.257 233.554C488.947 229.248 483.103 226.829 477.01 226.829H474.846C459.296 226.829 444.383 233.006 433.387 244.002C422.391 254.998 416.214 269.911 416.214 285.462V391.106C416.214 394.442 414.889 397.641 412.53 399.999C410.171 402.358 406.973 403.683 403.637 403.683H382.407C376.314 403.689 370.473 406.115 366.167 410.425C361.861 414.736 359.442 420.58 359.442 426.673C359.449 432.72 361.84 438.521 366.097 442.816C370.355 447.111 376.134 449.553 382.181 449.613Z" fill="url(#paint2_linear_62_13)"/>
<path d="M382.181 50.0001H403.411C411.109 49.9968 418.733 51.5103 425.847 54.4541C432.96 57.398 439.424 61.7144 444.869 67.157C450.314 72.5995 454.633 79.0615 457.58 86.1737C460.527 93.286 462.043 100.909 462.043 108.608V214.252C462.043 217.588 463.368 220.787 465.727 223.145C468.086 225.504 471.285 226.829 474.62 226.829H477.01C483.103 226.829 488.947 229.248 493.257 233.554C497.568 237.86 499.993 243.701 500 249.794C499.993 255.887 497.568 261.728 493.257 266.034C488.947 270.34 483.103 272.759 477.01 272.759H474.846C459.3 272.759 444.391 266.585 433.396 255.595C422.401 244.605 416.22 229.698 416.214 214.152V108.507C416.214 105.171 414.889 101.973 412.53 99.614C410.172 97.2554 406.973 95.9303 403.637 95.9303H382.408C379.367 95.9669 376.35 95.4001 373.53 94.2627C370.711 93.1253 368.145 91.4399 365.981 89.3041C363.817 87.1683 362.098 84.6244 360.924 81.8199C359.75 79.0153 359.144 76.0056 359.141 72.9652C359.141 69.943 359.737 66.9506 360.896 64.1594C362.055 61.3682 363.753 58.8332 365.894 56.6997C368.034 54.5662 370.575 52.8762 373.37 51.7265C376.165 50.5769 379.159 49.9902 382.181 50.0001Z" fill="url(#paint3_linear_62_13)"/>
<path d="M318.569 267.804H268.941C255.646 267.804 244.869 278.581 244.869 291.876V341.503C244.869 354.798 255.646 365.575 268.941 365.575H318.569C331.863 365.575 342.641 354.798 342.641 341.503V291.876C342.641 278.581 331.863 267.804 318.569 267.804Z" fill="url(#paint4_linear_62_13)"/>
<path d="M206.259 262.496H184.074C178.142 262.496 173.333 267.305 173.333 273.237V295.422C173.333 301.354 178.142 306.163 184.074 306.163H206.259C212.191 306.163 216.999 301.354 216.999 295.422V273.237C216.999 267.305 212.191 262.496 206.259 262.496Z" fill="url(#paint5_linear_62_13)"/>
<path d="M314.796 171.642H286.851C279.377 171.642 273.318 177.701 273.318 185.175V213.12C273.318 220.594 279.377 226.653 286.851 226.653H314.796C322.27 226.653 328.329 220.594 328.329 213.12V185.175C328.329 177.701 322.27 171.642 314.796 171.642Z" fill="url(#paint6_linear_62_13)"/>
<path d="M224.897 134.063H179.495C167.339 134.063 157.485 143.917 157.485 156.072V201.474C157.485 213.63 167.339 223.483 179.495 223.483H224.897C237.052 223.483 246.906 213.63 246.906 201.474V156.072C246.906 143.917 237.052 134.063 224.897 134.063Z" fill="url(#paint7_linear_62_13)"/>
<defs>
<linearGradient id="paint0_linear_62_13" x1="136.659" y1="470.189" x2="18.9657" y2="264.785" gradientUnits="userSpaceOnUse">
<stop stop-color="#01E1FD"/>
<stop offset="1" stop-color="#008DFF"/>
</linearGradient>
<linearGradient id="paint1_linear_62_13" x1="125.692" y1="49.8994" x2="-21.8835" y2="304.402" gradientUnits="userSpaceOnUse">
<stop stop-color="#008DFF"/>
<stop offset="1" stop-color="#01E1FD"/>
</linearGradient>
<linearGradient id="paint2_linear_62_13" x1="363.467" y1="470.188" x2="481.135" y2="264.785" gradientUnits="userSpaceOnUse">
<stop stop-color="#01E1FD"/>
<stop offset="1" stop-color="#008DFF"/>
</linearGradient>
<linearGradient id="paint3_linear_62_13" x1="374.434" y1="49.8995" x2="521.984" y2="304.402" gradientUnits="userSpaceOnUse">
<stop stop-color="#008DFF"/>
<stop offset="1" stop-color="#01E1FD"/>
</linearGradient>
<linearGradient id="paint4_linear_62_13" x1="244.869" y1="316.702" x2="342.641" y2="316.702" gradientUnits="userSpaceOnUse">
<stop stop-color="#9900FF"/>
<stop offset="1" stop-color="#4D00FF"/>
</linearGradient>
<linearGradient id="paint5_linear_62_13" x1="173.333" y1="284.304" x2="216.999" y2="284.304" gradientUnits="userSpaceOnUse">
<stop stop-color="#01E1FD"/>
<stop offset="1" stop-color="#008DFF"/>
</linearGradient>
<linearGradient id="paint6_linear_62_13" x1="273.318" y1="199.16" x2="328.329" y2="199.16" gradientUnits="userSpaceOnUse">
<stop stop-color="#01E1FD"/>
<stop offset="1" stop-color="#008DFF" stop-opacity="0.952941"/>
</linearGradient>
<linearGradient id="paint7_linear_62_13" x1="157.485" y1="178.761" x2="246.906" y2="178.761" gradientUnits="userSpaceOnUse">
<stop stop-color="#9900FF"/>
<stop offset="1" stop-color="#4D00FF"/>
</linearGradient>
</defs>
</svg>
